<svg xmlns="http://www.w3.org/2000/svg" width="300" height="300" viewBox="0 0 300 300">
<path d="M 86.18 96.98 L 87.14 96.91 C 88.23 96.83 89.05 95.88 88.97 94.78 C 88.89 93.69 87.94 92.87 86.85 92.95 L 85.89 93.02 C 84.80 93.10 83.98 94.05 84.06 95.14 C 84.14 96.24 85.09 97.06 86.18 96.98 Z M 87.13 96.91 L 88.10 96.84 C 89.19 96.77 90.02 95.81 89.94 94.72 C 89.86 93.62 88.91 92.80 87.81 92.88 L 86.85 92.95 C 85.76 93.02 84.93 93.97 85.01 95.07 C 85.09 96.16 86.04 96.99 87.13 96.91 Z M 88.09 96.85 L 89.07 96.78 C 90.16 96.71 90.99 95.76 90.92 94.66 C 90.85 93.57 89.90 92.74 88.80 92.81 L 87.82 92.87 C 86.73 92.95 85.90 93.90 85.97 94.99 C 86.04 96.09 86.99 96.92 88.09 96.85 Z M 89.05 96.78 L 90.06 96.72 C 91.15 96.66 91.99 95.71 91.92 94.62 C 91.86 93.52 90.92 92.68 89.82 92.75 L 88.81 92.81 C 87.72 92.87 86.88 93.82 86.95 94.91 C 87.01 96.01 87.96 96.85 89.05 96.78 Z M 90.04 96.72 L 91.08 96.67 C 92.18 96.61 93.02 95.68 92.96 94.58 C 92.91 93.48 91.97 92.64 90.87 92.69 L 89.83 92.75 C 88.74 92.80 87.89 93.74 87.95 94.84 C 88.01 95.94 88.94 96.78 90.04 96.72 Z M 91.06 96.67 L 92.07 96.63 C 93.17 96.58 94.03 95.65 93.98 94.55 C 93.93 93.45 93.01 92.60 91.91 92.65 L 90.89 92.69 C 89.79 92.74 88.94 93.67 88.98 94.77 C 89.03 95.87 89.96 96.72 91.06 96.67 Z M 92.06 96.63 L 92.95 96.60 C 94.05 96.56 94.91 95.64 94.87 94.54 C 94.83 93.44 93.91 92.58 92.81 92.62 L 91.92 92.65 C 90.82 92.68 89.96 93.61 90.00 94.71 C 90.04 95.81 90.96 96.67 92.06 96.63 Z M 92.93 96.60 L 93.85 96.58 C 94.95 96.55 95.82 95.63 95.79 94.53 C 95.76 93.43 94.85 92.56 93.74 92.59 L 92.82 92.61 C 91.72 92.64 90.85 93.56 90.88 94.66 C 90.91 95.76 91.83 96.63 92.93 96.60 Z M 93.84 96.58 L 94.80 96.56 C 95.90 96.53 96.77 95.62 96.75 94.52 C 96.73 93.42 95.82 92.54 94.72 92.57 L 93.76 92.59 C 92.65 92.61 91.78 93.52 91.80 94.63 C 91.83 95.73 92.74 96.60 93.84 96.58 Z M 94.79 96.56 L 95.79 96.54 C 96.89 96.52 97.77 95.62 97.75 94.51 C 97.73 93.41 96.83 92.53 95.72 92.55 L 94.72 92.57 C 93.62 92.59 92.74 93.49 92.76 94.60 C 92.78 95.70 93.69 96.58 94.79 96.56 Z M 95.78 96.54 L 96.83 96.53 C 97.93 96.51 98.81 95.61 98.80 94.51 C 98.78 93.41 97.88 92.52 96.78 92.54 L 95.73 92.55 C 94.63 92.56 93.75 93.47 93.76 94.57 C 93.78 95.67 94.68 96.56 95.78 96.54 Z M 96.82 96.53 L 97.91 96.52 C 99.01 96.51 99.90 95.61 99.89 94.51 C 99.88 93.40 98.98 92.52 97.87 92.53 L 96.78 92.54 C 95.68 92.55 94.80 93.45 94.81 94.55 C 94.82 95.65 95.72 96.54 96.82 96.53 Z M 97.91 96.52 L 99.03 96.51 C 100.14 96.50 101.02 95.61 101.02 94.50 C 101.01 93.40 100.11 92.51 99.01 92.52 L 97.88 92.53 C 96.78 92.53 95.89 93.43 95.90 94.54 C 95.90 95.64 96.80 96.53 97.91 96.52 Z M 99.03 96.51 L 99.94 96.51 C 101.04 96.50 101.93 95.60 101.92 94.50 C 101.92 93.40 101.02 92.51 99.92 92.52 L 99.01 92.52 C 97.91 92.53 97.02 93.42 97.02 94.53 C 97.03 95.63 97.93 96.52 99.03 96.51 Z M 99.93 96.51 L 100.87 96.50 C 101.97 96.50 102.86 95.60 102.86 94.50 C 102.85 93.40 101.96 92.51 100.85 92.51 L 99.92 92.52 C 98.82 92.52 97.93 93.42 97.93 94.52 C 97.93 95.62 98.83 96.51 99.93 96.51 Z M 100.87 96.50 L 101.83 96.50 C 102.93 96.50 103.82 95.60 103.82 94.50 C 103.82 93.40 102.92 92.51 101.82 92.51 L 100.86 92.51 C 99.75 92.52 98.86 93.41 98.87 94.51 C 98.87 95.62 99.77 96.51 100.87 96.50 Z M 101.83 96.50 L 102.81 96.50 C 103.91 96.50 104.81 95.60 104.80 94.50 C 104.80 93.40 103.91 92.51 102.80 92.51 L 101.82 92.51 C 100.72 92.51 99.83 93.41 99.83 94.51 C 99.83 95.61 100.73 96.50 101.83 96.50 Z M 102.81 96.50 L 103.82 96.50 C 104.92 96.49 105.81 95.60 105.81 94.50 C 105.81 93.40 104.91 92.51 103.81 92.51 L 102.81 92.51 C 101.71 92.51 100.81 93.40 100.82 94.51 C 100.82 95.61 101.71 96.50 102.81 96.50 Z M 103.82 96.49 L 104.84 96.49 C 105.94 96.49 106.83 95.60 106.83 94.50 C 106.83 93.40 105.94 92.51 104.84 92.51 L 103.81 92.51 C 102.71 92.51 101.82 93.40 101.82 94.50 C 101.82 95.60 102.72 96.50 103.82 96.49 Z M 104.84 96.49 L 105.88 96.49 C 106.98 96.49 107.87 95.60 107.87 94.50 C 107.87 93.40 106.98 92.51 105.88 92.51 L 104.84 92.51 C 103.74 92.51 102.85 93.40 102.85 94.50 C 102.85 95.60 103.74 96.49 104.84 96.49 Z M 105.88 96.49 L 106.93 96.49 C 108.03 96.49 108.92 95.60 108.92 94.50 C 108.92 93.40 108.03 92.51 106.93 92.51 L 105.88 92.51 C 104.78 92.51 103.89 93.40 103.89 94.50 C 103.89 95.60 104.78 96.49 105.88 96.49 Z M 106.93 96.49 L 108.00 96.49 C 109.10 96.49 109.99 95.60 109.99 94.50 C 109.99 93.40 109.10 92.51 108.00 92.51 L 106.93 92.51 C 105.83 92.51 104.94 93.40 104.94 94.50 C 104.94 95.60 105.83 96.49 106.93 96.49 Z M 108.00 96.49 L 109.01 96.49 C 110.11 96.49 111.00 95.60 111.00 94.50 C 111.00 93.40 110.11 92.51 109.01 92.51 L 108.00 92.51 C 106.90 92.51 106.01 93.40 106.01 94.50 C 106.01 95.60 106.90 96.49 108.00 96.49 Z M 109.01 96.49 L 110.00 96.49 C 111.10 96.49 111.99 95.60 111.99 94.50 C 111.99 93.40 111.09 92.51 110.00 92.51 L 109.01 92.51 C 107.91 92.51 107.02 93.40 107.02 94.50 C 107.02 95.60 107.91 96.49 109.01 96.49 Z M 110.00 96.49 L 110.98 96.49 C 112.08 96.49 112.97 95.60 112.97 94.50 C 112.97 93.40 112.08 92.51 110.98 92.51 L 110.00 92.51 C 108.90 92.51 108.01 93.40 108.01 94.50 C 108.01 95.60 108.90 96.49 110.00 96.49 Z M 110.99 96.49 L 111.98 96.49 C 113.08 96.49 113.97 95.60 113.97 94.50 C 113.96 93.40 113.07 92.51 111.98 92.51 L 110.98 92.51 C 109.88 92.51 108.99 93.40 109.00 94.50 C 109.00 95.60 109.89 96.49 110.99 96.49 Z M 111.98 96.49 L 112.98 96.49 C 114.07 96.48 114.96 95.59 114.96 94.50 C 114.96 93.40 114.07 92.51 112.97 92.51 L 111.97 92.51 C 110.88 92.51 109.99 93.40 109.99 94.50 C 109.99 95.60 110.88 96.49 111.98 96.49 Z M 112.98 96.48 L 113.98 96.48 C 115.08 96.48 115.97 95.59 115.96 94.49 C 115.96 93.39 115.07 92.51 113.97 92.51 L 112.97 92.51 C 111.87 92.51 110.98 93.40 110.99 94.50 C 110.99 95.60 111.88 96.49 112.98 96.48 Z M 113.98 96.48 L 114.99 96.48 C 116.08 96.48 116.97 95.58 116.97 94.49 C 116.96 93.39 116.07 92.50 114.97 92.51 L 113.97 92.51 C 112.87 92.51 111.99 93.40 111.99 94.50 C 111.99 95.60 112.88 96.49 113.98 96.48 Z M 114.99 96.48 L 116.00 96.48 C 117.09 96.47 117.98 95.58 117.97 94.48 C 117.97 93.38 117.08 92.50 115.98 92.50 L 114.97 92.51 C 113.88 92.51 112.99 93.40 112.99 94.50 C 113.00 95.60 113.89 96.48 114.99 96.48 Z M 116.00 96.47 L 117.01 96.47 C 118.11 96.46 118.99 95.57 118.99 94.47 C 118.98 93.38 118.09 92.49 116.99 92.50 L 115.98 92.50 C 114.88 92.51 114.00 93.40 114.00 94.50 C 114.01 95.60 114.90 96.48 116.00 96.47 Z M 117.01 96.47 L 118.03 96.46 C 119.12 96.46 120.00 95.56 120.00 94.47 C 119.99 93.37 119.10 92.49 118.00 92.49 L 116.99 92.50 C 115.89 92.51 115.01 93.40 115.01 94.50 C 115.02 95.59 115.92 96.48 117.01 96.47 Z M 118.03 96.46 L 119.04 96.45 C 120.14 96.45 121.02 95.55 121.01 94.46 C 121.00 93.36 120.11 92.48 119.01 92.49 L 118.00 92.49 C 116.90 92.50 116.02 93.40 116.03 94.49 C 116.04 95.59 116.93 96.47 118.03 96.46 Z M 119.04 96.45 L 120.04 96.45 C 121.13 96.44 122.01 95.54 122.00 94.44 C 121.99 93.35 121.10 92.47 120.00 92.48 L 119.01 92.49 C 117.91 92.50 117.03 93.39 117.04 94.49 C 117.05 95.58 117.95 96.46 119.04 96.45 Z M 120.04 96.44 L 121.04 96.43 C 122.13 96.42 123.01 95.53 123.00 94.43 C 122.99 93.34 122.09 92.46 121.00 92.47 L 120.00 92.48 C 118.90 92.49 118.03 93.39 118.04 94.48 C 118.05 95.58 118.95 96.46 120.04 96.44 Z M 121.04 96.43 L 122.04 96.42 C 123.13 96.41 124.01 95.51 124.00 94.42 C 123.99 93.32 123.09 92.44 121.99 92.46 L 120.99 92.47 C 119.90 92.48 119.02 93.38 119.04 94.47 C 119.05 95.57 119.95 96.45 121.04 96.43 Z M 122.04 96.42 L 123.04 96.41 C 124.14 96.39 125.01 95.49 125.00 94.40 C 124.98 93.31 124.08 92.43 122.99 92.44 L 121.99 92.46 C 120.90 92.47 120.02 93.37 120.03 94.47 C 120.05 95.56 120.95 96.44 122.04 96.42 Z M 123.05 96.41 L 124.05 96.39 C 125.14 96.38 126.01 95.48 126.00 94.38 C 125.98 93.29 125.08 92.41 123.99 92.43 L 122.99 92.45 C 121.89 92.46 121.02 93.36 121.04 94.46 C 121.05 95.55 121.95 96.42 123.05 96.41 Z M 124.05 96.39 L 125.05 96.37 C 126.14 96.36 127.02 95.46 127.00 94.36 C 126.98 93.27 126.08 92.40 124.99 92.41 L 123.98 92.43 C 122.89 92.45 122.02 93.35 122.04 94.44 C 122.05 95.54 122.96 96.41 124.05 96.39 Z M 125.05 96.37 L 126.05 96.36 C 127.15 96.34 128.02 95.43 128.00 94.34 C 127.98 93.25 127.08 92.38 125.98 92.40 L 124.98 92.42 C 123.89 92.43 123.02 93.34 123.04 94.43 C 123.06 95.52 123.96 96.39 125.05 96.37 Z M 126.06 96.36 L 127.06 96.34 C 128.15 96.32 129.02 95.41 129.00 94.32 C 128.98 93.23 128.08 92.36 126.98 92.38 L 125.98 92.40 C 124.89 92.42 124.02 93.32 124.04 94.42 C 124.06 95.51 124.96 96.38 126.06 96.36 Z M 127.06 96.34 L 128.06 96.31 C 129.16 96.29 130.02 95.39 130.00 94.30 C 129.98 93.20 129.07 92.34 127.98 92.36 L 126.98 92.38 C 125.89 92.40 125.02 93.31 125.04 94.40 C 125.07 95.49 125.97 96.36 127.06 96.34 Z M 128.07 96.31 L 129.07 96.29 C 130.16 96.27 131.03 95.36 131.00 94.27 C 130.98 93.18 130.07 92.31 128.98 92.34 L 127.98 92.36 C 126.89 92.38 126.02 93.29 126.05 94.38 C 126.07 95.47 126.97 96.34 128.07 96.31 Z M 129.07 96.29 L 130.08 96.27 C 131.17 96.24 132.03 95.34 132.01 94.24 C 131.98 93.15 131.07 92.29 129.98 92.31 L 128.98 92.34 C 127.89 92.36 127.02 93.27 127.05 94.36 C 127.07 95.45 127.98 96.32 129.07 96.29 Z M 130.08 96.27 L 131.09 96.24 C 132.18 96.21 133.04 95.31 133.01 94.22 C 132.98 93.12 132.08 92.26 130.99 92.29 L 129.98 92.32 C 128.89 92.34 128.03 93.25 128.05 94.34 C 128.08 95.43 128.99 96.29 130.08 96.27 Z M 131.09 96.24 L 132.10 96.21 C 133.19 96.18 134.04 95.27 134.01 94.18 C 133.99 93.10 133.08 92.24 131.99 92.27 L 130.98 92.29 C 129.89 92.32 129.03 93.23 129.06 94.32 C 129.09 95.41 130.00 96.27 131.09 96.24 Z M 132.10 96.21 L 133.10 96.18 C 134.19 96.15 135.05 95.24 135.02 94.15 C 134.99 93.06 134.08 92.21 132.99 92.24 L 131.99 92.27 C 130.90 92.30 130.04 93.21 130.07 94.30 C 130.10 95.38 131.01 96.24 132.10 96.21 Z M 133.11 96.18 L 134.11 96.15 C 135.20 96.11 136.05 95.20 136.02 94.12 C 135.98 93.03 135.08 92.18 133.99 92.21 L 132.99 92.24 C 131.90 92.27 131.04 93.18 131.08 94.27 C 131.11 95.36 132.02 96.21 133.11 96.18 Z M 134.12 96.14 L 135.12 96.11 C 136.20 96.07 137.05 95.16 137.02 94.08 C 136.98 92.99 136.07 92.14 134.99 92.18 L 133.98 92.21 C 132.90 92.25 132.05 93.16 132.08 94.24 C 132.12 95.33 133.03 96.18 134.12 96.14 Z M 135.12 96.11 L 136.12 96.07 C 137.20 96.03 138.05 95.12 138.01 94.04 C 137.98 92.95 137.06 92.11 135.98 92.14 L 134.98 92.18 C 133.90 92.22 133.05 93.13 133.09 94.21 C 133.13 95.30 134.04 96.15 135.12 96.11 Z M 136.12 96.07 L 137.12 96.03 C 138.20 95.99 139.05 95.08 139.01 94.00 C 138.97 92.91 138.05 92.07 136.97 92.11 L 135.97 92.15 C 134.89 92.19 134.05 93.10 134.09 94.18 C 134.13 95.27 135.04 96.11 136.12 96.07 Z M 137.13 96.03 L 138.12 95.99 C 139.20 95.95 140.04 95.03 140.00 93.95 C 139.96 92.87 139.04 92.03 137.96 92.07 L 136.97 92.11 C 135.88 92.16 135.04 93.07 135.09 94.15 C 135.13 95.23 136.04 96.08 137.13 96.03 Z M 138.13 95.99 L 139.12 95.94 C 140.20 95.90 141.03 94.98 140.99 93.90 C 140.94 92.82 140.03 91.98 138.94 92.03 L 137.95 92.07 C 136.87 92.12 136.03 93.03 136.08 94.12 C 136.13 95.20 137.04 96.04 138.13 95.99 Z M 139.12 95.94 L 140.11 95.90 C 141.19 95.85 142.03 94.93 141.97 93.85 C 141.92 92.77 141.01 91.93 139.93 91.98 L 138.94 92.03 C 137.86 92.08 137.02 93.00 137.07 94.08 C 137.12 95.16 138.04 95.99 139.12 95.94 Z M 140.12 95.89 L 141.13 95.84 C 142.21 95.79 143.04 94.87 142.99 93.79 C 142.93 92.71 142.01 91.88 140.94 91.94 L 139.92 91.99 C 138.84 92.04 138.01 92.96 138.06 94.04 C 138.12 95.12 139.04 95.95 140.12 95.89 Z M 141.14 95.84 L 142.15 95.79 C 143.23 95.73 144.06 94.81 144.00 93.73 C 143.94 92.65 143.02 91.82 141.94 91.88 L 140.93 91.94 C 139.85 91.99 139.02 92.91 139.08 93.99 C 139.14 95.07 140.06 95.90 141.14 95.84 Z M 142.15 95.79 L 143.16 95.73 C 144.24 95.67 145.06 94.75 145.00 93.67 C 144.94 92.59 144.02 91.77 142.94 91.83 L 141.93 91.88 C 140.86 91.94 140.03 92.87 140.09 93.95 C 140.15 95.02 141.08 95.85 142.15 95.79 Z M 143.17 95.73 L 144.17 95.67 C 145.25 95.61 146.07 94.68 146.01 93.60 C 145.94 92.53 145.02 91.70 143.94 91.77 L 142.94 91.83 C 141.86 91.89 141.04 92.82 141.10 93.89 C 141.16 94.97 142.09 95.79 143.17 95.73 Z M 144.18 95.67 L 145.17 95.61 C 146.25 95.54 147.07 94.61 147.00 93.54 C 146.94 92.46 146.01 91.64 144.93 91.71 L 143.93 91.77 C 142.86 91.84 142.04 92.76 142.10 93.84 C 142.17 94.92 143.10 95.74 144.18 95.67 Z M 145.18 95.61 L 146.18 95.54 C 147.25 95.47 148.07 94.54 148.00 93.47 C 147.93 92.39 147.00 91.57 145.92 91.64 L 144.93 91.71 C 143.85 91.78 143.03 92.71 143.10 93.78 C 143.17 94.86 144.10 95.68 145.18 95.61 Z M 146.18 95.54 L 147.17 95.47 C 148.25 95.40 149.06 94.47 148.99 93.39 C 148.92 92.32 147.99 91.50 146.91 91.58 L 145.92 91.64 C 144.84 91.72 144.03 92.65 144.10 93.72 C 144.17 94.80 145.10 95.61 146.18 95.54 Z M 147.18 95.47 L 148.17 95.40 C 149.24 95.33 150.05 94.40 149.98 93.32 C 149.90 92.25 148.97 91.43 147.90 91.51 L 146.91 91.58 C 145.83 91.65 145.02 92.59 145.09 93.66 C 145.17 94.74 146.10 95.55 147.18 95.47 Z M 148.17 95.40 L 149.16 95.33 C 150.23 95.26 151.04 94.32 150.96 93.25 C 150.89 92.17 149.95 91.36 148.88 91.44 L 147.89 91.51 C 146.82 91.59 146.01 92.52 146.08 93.60 C 146.16 94.67 147.10 95.48 148.17 95.40 Z M 149.16 95.33 L 150.14 95.26 C 151.22 95.18 152.02 94.24 151.95 93.17 C 151.87 92.10 150.93 91.29 149.86 91.37 L 148.87 91.44 C 147.80 91.52 146.99 92.46 147.07 93.53 C 147.15 94.60 148.09 95.41 149.16 95.33 Z M 150.15 95.26 L 151.18 95.18 C 152.25 95.10 153.06 94.16 152.97 93.09 C 152.89 92.01 151.96 91.21 150.88 91.29 L 149.85 91.37 C 148.78 91.45 147.97 92.39 148.06 93.46 C 148.14 94.54 149.07 95.34 150.15 95.26 Z M 151.18 95.18 L 152.21 95.10 C 153.29 95.01 154.09 94.08 154.00 93.00 C 153.92 91.93 152.98 91.13 151.91 91.21 L 150.88 91.29 C 149.81 91.38 149.00 92.32 149.09 93.39 C 149.17 94.46 150.11 95.26 151.18 95.18 Z M 152.22 95.10 L 153.24 95.01 C 154.32 94.92 155.11 93.99 155.03 92.91 C 154.94 91.84 154.00 91.04 152.93 91.13 L 151.90 91.22 C 150.83 91.30 150.03 92.24 150.12 93.31 C 150.21 94.38 151.15 95.18 152.22 95.10 Z M 153.25 95.01 L 154.27 94.92 C 155.34 94.83 156.13 93.89 156.04 92.82 C 155.95 91.75 155.01 90.96 153.94 91.05 L 152.92 91.13 C 151.85 91.22 151.06 92.17 151.15 93.24 C 151.24 94.31 152.18 95.10 153.25 95.01 Z M 154.28 94.92 L 155.28 94.83 C 156.35 94.74 157.14 93.79 157.05 92.72 C 156.95 91.66 156.01 90.87 154.94 90.96 L 153.93 91.05 C 152.86 91.15 152.07 92.09 152.17 93.16 C 152.26 94.23 153.21 95.02 154.28 94.92 Z M 155.29 94.83 L 156.29 94.74 C 157.35 94.64 158.14 93.69 158.04 92.62 C 157.94 91.55 156.99 90.77 155.92 90.87 L 154.93 90.96 C 153.86 91.06 153.08 92.01 153.18 93.08 C 153.28 94.14 154.22 94.93 155.29 94.83 Z M 156.30 94.73 L 157.28 94.64 C 158.34 94.53 159.12 93.58 159.02 92.51 C 158.91 91.45 157.96 90.67 156.90 90.78 L 155.91 90.87 C 154.85 90.98 154.07 91.93 154.18 92.99 C 154.28 94.06 155.23 94.84 156.30 94.73 Z M 157.29 94.63 L 158.26 94.53 C 159.32 94.42 160.09 93.47 159.98 92.40 C 159.87 91.34 158.92 90.57 157.85 90.68 L 156.88 90.78 C 155.82 90.89 155.05 91.84 155.16 92.91 C 155.27 93.97 156.23 94.74 157.29 94.63 Z M 158.27 94.53 L 159.22 94.42 C 160.28 94.30 161.05 93.34 160.93 92.28 C 160.81 91.22 159.85 90.46 158.79 90.57 L 157.84 90.68 C 156.78 90.80 156.01 91.76 156.13 92.82 C 156.25 93.88 157.21 94.65 158.27 94.53 Z M 159.23 94.42 L 160.20 94.30 C 161.26 94.17 162.02 93.21 161.89 92.15 C 161.76 91.09 160.80 90.34 159.74 90.46 L 158.77 90.58 C 157.71 90.71 156.96 91.67 157.08 92.73 C 157.21 93.79 158.17 94.54 159.23 94.42 Z M 160.22 94.29 L 161.27 94.16 C 162.33 94.02 163.08 93.06 162.94 92.00 C 162.80 90.94 161.84 90.20 160.78 90.33 L 159.73 90.47 C 158.67 90.60 157.92 91.57 158.06 92.63 C 158.20 93.68 159.16 94.43 160.22 94.29 Z M 161.29 94.15 L 162.32 94.01 C 163.37 93.86 164.11 92.89 163.96 91.84 C 163.82 90.79 162.85 90.05 161.79 90.20 L 160.76 90.34 C 159.71 90.49 158.98 91.46 159.12 92.51 C 159.27 93.56 160.24 94.30 161.29 94.15 Z M 162.33 94.00 L 163.34 93.85 C 164.39 93.70 165.11 92.73 164.96 91.68 C 164.81 90.64 163.84 89.91 162.79 90.06 L 161.78 90.21 C 160.73 90.36 160.01 91.33 160.16 92.38 C 160.31 93.43 161.28 94.15 162.33 94.00 Z M 163.35 93.85 L 164.34 93.70 C 165.38 93.54 166.10 92.57 165.94 91.52 C 165.79 90.48 164.81 89.76 163.77 89.92 L 162.78 90.07 C 161.74 90.23 161.02 91.20 161.18 92.24 C 161.33 93.29 162.31 94.01 163.35 93.85 Z M 164.35 93.69 L 165.32 93.54 C 166.36 93.38 167.07 92.40 166.91 91.36 C 166.75 90.32 165.77 89.61 164.73 89.77 L 163.76 89.93 C 162.72 90.09 162.01 91.06 162.17 92.10 C 162.34 93.14 163.31 93.85 164.35 93.69 Z M 165.33 93.53 L 166.29 93.38 C 167.32 93.21 168.03 92.24 167.86 91.20 C 167.70 90.17 166.72 89.46 165.69 89.63 L 164.73 89.78 C 163.69 89.95 162.99 90.92 163.15 91.96 C 163.32 92.99 164.29 93.70 165.33 93.53 Z M 166.29 93.37 L 167.23 93.22 C 168.27 93.05 168.97 92.08 168.80 91.05 C 168.63 90.02 167.66 89.31 166.63 89.48 L 165.68 89.63 C 164.65 89.80 163.95 90.77 164.12 91.81 C 164.28 92.84 165.26 93.54 166.29 93.37 Z M 167.23 93.21 L 168.17 93.06 C 169.20 92.90 169.90 91.93 169.73 90.90 C 169.57 89.87 168.60 89.17 167.57 89.34 L 166.63 89.49 C 165.60 89.65 164.90 90.62 165.07 91.65 C 165.24 92.68 166.20 93.38 167.23 93.21 Z M 168.17 93.06 L 169.18 92.89 C 170.20 92.73 170.90 91.76 170.74 90.74 C 170.57 89.71 169.61 89.01 168.58 89.18 L 167.57 89.34 C 166.54 89.51 165.85 90.47 166.01 91.50 C 166.18 92.52 167.14 93.22 168.17 93.06 Z M 169.17 92.89 L 170.18 92.73 C 171.21 92.56 171.90 91.60 171.74 90.58 C 171.58 89.56 170.62 88.86 169.60 89.03 L 168.59 89.19 C 167.56 89.35 166.87 90.31 167.03 91.33 C 167.19 92.35 168.15 93.05 169.17 92.89 Z M 170.18 92.72 L 171.18 92.56 C 172.20 92.40 172.89 91.45 172.73 90.43 C 172.57 89.41 171.62 88.71 170.60 88.87 L 169.60 89.03 C 168.58 89.19 167.89 90.15 168.05 91.17 C 168.21 92.19 169.16 92.88 170.18 92.72 Z M 171.18 92.56 L 172.17 92.40 C 173.18 92.24 173.88 91.29 173.72 90.28 C 173.56 89.26 172.61 88.57 171.59 88.73 L 170.60 88.88 C 169.59 89.04 168.89 89.99 169.05 91.01 C 169.21 92.02 170.16 92.71 171.18 92.56 Z M 172.16 92.40 L 173.15 92.24 C 174.16 92.09 174.85 91.14 174.69 90.13 C 174.54 89.12 173.59 88.43 172.58 88.58 L 171.60 88.73 C 170.59 88.89 169.89 89.84 170.05 90.85 C 170.21 91.86 171.15 92.55 172.16 92.40 Z M 173.14 92.24 L 174.11 92.09 C 175.12 91.94 175.81 90.99 175.66 89.99 C 175.51 88.98 174.57 88.29 173.56 88.44 L 172.58 88.59 C 171.58 88.74 170.88 89.68 171.04 90.69 C 171.19 91.70 172.13 92.39 173.14 92.24 Z M 174.11 92.08 L 175.08 91.94 C 176.08 91.79 176.77 90.85 176.62 89.84 C 176.47 88.84 175.53 88.15 174.53 88.30 L 173.56 88.45 C 172.56 88.60 171.87 89.54 172.02 90.54 C 172.17 91.54 173.11 92.23 174.11 92.08 Z M 175.07 91.93 L 176.06 91.78 C 177.06 91.63 177.75 90.70 177.61 89.70 C 177.46 88.70 176.52 88.01 175.52 88.16 L 174.53 88.31 C 173.53 88.46 172.84 89.39 172.99 90.39 C 173.14 91.39 174.07 92.08 175.07 91.93 Z M 176.06 91.78 L 177.11 91.62 C 178.11 91.48 178.79 90.55 178.65 89.55 C 178.50 88.55 177.57 87.86 176.57 88.01 L 175.53 88.16 C 174.53 88.31 173.84 89.24 173.99 90.24 C 174.13 91.24 175.06 91.93 176.06 91.78 Z M 177.10 91.62 L 178.14 91.47 C 179.13 91.32 179.82 90.40 179.68 89.40 C 179.53 88.41 178.60 87.72 177.61 87.86 L 176.58 88.01 C 175.58 88.16 174.89 89.08 175.04 90.08 C 175.18 91.08 176.11 91.76 177.10 91.62 Z M 178.13 91.46 L 179.14 91.32 C 180.14 91.18 180.83 90.25 180.68 89.26 C 180.54 88.27 179.62 87.58 178.62 87.72 L 177.61 87.87 C 176.62 88.01 175.93 88.93 176.07 89.93 C 176.22 90.92 177.14 91.61 178.13 91.46 Z M 179.14 91.32 L 180.13 91.17 C 181.12 91.03 181.81 90.12 181.67 89.12 C 181.52 88.13 180.61 87.44 179.61 87.58 L 178.63 87.72 C 177.64 87.87 176.95 88.78 177.09 89.78 C 177.23 90.77 178.15 91.46 179.14 91.32 Z M 180.12 91.17 L 181.08 91.04 C 182.07 90.90 182.76 89.98 182.62 88.99 C 182.48 88.00 181.57 87.31 180.58 87.45 L 179.62 87.59 C 178.63 87.73 177.94 88.64 178.08 89.63 C 178.22 90.62 179.13 91.31 180.12 91.17 Z M 181.08 91.03 L 182.00 90.90 C 182.99 90.77 183.68 89.85 183.54 88.87 C 183.40 87.88 182.49 87.19 181.51 87.33 L 180.58 87.46 C 179.59 87.59 178.90 88.51 179.04 89.49 C 179.18 90.48 180.09 91.17 181.08 91.03 Z M 182.00 90.90 L 183.00 90.76 C 183.99 90.63 184.67 89.72 184.54 88.73 C 184.41 87.75 183.50 87.06 182.51 87.20 L 181.51 87.33 C 180.53 87.47 179.84 88.38 179.97 89.36 C 180.11 90.34 181.01 91.03 182.00 90.90 Z M 182.99 90.76 L 184.06 90.61 C 185.04 90.48 185.73 89.58 185.60 88.60 C 185.46 87.62 184.56 86.93 183.58 87.06 L 182.52 87.20 C 181.54 87.33 180.85 88.23 180.98 89.22 C 181.11 90.20 182.01 90.89 182.99 90.76 Z M 184.04 90.61 L 185.06 90.48 C 186.03 90.36 186.73 89.46 186.60 88.48 C 186.48 87.50 185.58 86.81 184.60 86.94 L 183.59 87.07 C 182.61 87.19 181.92 88.08 182.05 89.06 C 182.17 90.04 183.07 90.73 184.04 90.61 Z M 185.04 90.48 L 186.01 90.36 C 186.99 90.24 187.69 89.36 187.57 88.38 C 187.45 87.40 186.57 86.71 185.59 86.82 L 184.62 86.94 C 183.64 87.06 182.95 87.94 183.06 88.92 C 183.18 89.90 184.07 90.59 185.04 90.48 Z M 185.99 90.35 L 186.93 90.25 C 187.91 90.15 188.61 89.27 188.50 88.30 C 188.40 87.32 187.52 86.62 186.55 86.73 L 185.61 86.83 C 184.64 86.94 183.93 87.81 184.04 88.78 C 184.15 89.76 185.02 90.46 185.99 90.35 Z M 186.91 90.25 L 187.84 90.16 C 188.81 90.07 189.52 89.20 189.43 88.23 C 189.33 87.26 188.47 86.55 187.50 86.64 L 186.57 86.73 C 185.60 86.82 184.89 87.69 184.98 88.66 C 185.08 89.63 185.94 90.34 186.91 90.25 Z M 187.81 90.15 L 188.83 90.07 C 189.80 89.99 190.52 89.15 190.44 88.18 C 190.37 87.21 189.52 86.49 188.55 86.57 L 187.53 86.65 C 186.56 86.73 185.84 87.57 185.91 88.54 C 185.99 89.51 186.84 90.23 187.81 90.15 Z M 188.80 90.07 L 189.81 90.00 C 190.78 89.94 191.51 89.10 191.44 88.14 C 191.38 87.17 190.55 86.44 189.58 86.51 L 188.58 86.57 C 187.61 86.63 186.88 87.47 186.94 88.43 C 187.01 89.40 187.84 90.13 188.80 90.07 Z M 189.79 89.99 L 190.78 89.94 C 191.74 89.89 192.48 89.07 192.43 88.11 C 192.38 87.14 191.56 86.41 190.60 86.46 L 189.60 86.51 C 188.64 86.56 187.90 87.38 187.96 88.35 C 188.01 89.31 188.83 90.04 189.79 89.99 Z M 190.77 89.93 L 191.75 89.89 C 192.71 89.85 193.45 89.04 193.41 88.08 C 193.36 87.12 192.55 86.38 191.60 86.42 L 190.61 86.47 C 189.66 86.51 188.91 87.32 188.96 88.27 C 189.00 89.23 189.81 89.97 190.77 89.93 Z M 191.74 89.88 L 192.74 89.84 C 193.69 89.81 194.43 89.01 194.40 88.06 C 194.36 87.10 193.56 86.36 192.61 86.39 L 191.61 86.43 C 190.66 86.47 189.91 87.27 189.95 88.22 C 189.98 89.17 190.78 89.92 191.74 89.88 Z M 192.73 89.84 L 193.77 89.80 C 194.72 89.77 195.47 88.98 195.44 88.03 C 195.41 87.08 194.61 86.34 193.66 86.37 L 192.62 86.40 C 191.67 86.43 190.93 87.23 190.96 88.17 C 190.99 89.12 191.78 89.87 192.73 89.84 Z M 193.77 89.79 L 194.79 89.77 C 195.73 89.74 196.48 88.96 196.45 88.01 C 196.42 87.07 195.64 86.33 194.70 86.35 L 193.67 86.38 C 192.73 86.40 191.99 87.19 192.01 88.13 C 192.04 89.07 192.82 89.82 193.77 89.79 Z M 194.78 89.76 L 195.77 89.73 C 196.71 89.71 197.45 88.94 197.43 88.00 C 197.41 87.06 196.63 86.32 195.69 86.34 L 194.71 86.36 C 193.77 86.38 193.02 87.16 193.05 88.10 C 193.07 89.03 193.84 89.78 194.78 89.76 Z M 195.76 89.72 L 196.70 89.71 C 197.63 89.69 198.37 88.92 198.36 87.99 C 198.34 87.06 197.57 86.32 196.64 86.33 L 195.70 86.35 C 194.77 86.36 194.03 87.13 194.04 88.07 C 194.06 89.00 194.83 89.74 195.76 89.72 Z M 196.69 89.70 L 197.75 89.69 C 198.68 89.68 199.42 88.92 199.41 87.99 C 199.40 87.06 198.64 86.32 197.71 86.33 L 196.65 86.34 C 195.72 86.35 194.98 87.11 194.99 88.04 C 195.00 88.97 195.76 89.71 196.69 89.70 Z M 197.74 89.68 L 198.75 89.67 C 199.68 89.67 200.42 88.91 200.41 87.99 C 200.41 87.07 199.66 86.33 198.73 86.33 L 197.72 86.34 C 196.80 86.34 196.06 87.10 196.06 88.02 C 196.07 88.94 196.82 89.68 197.74 89.68 Z M 198.75 89.66 L 199.70 89.66 C 200.62 89.66 201.36 88.91 201.36 88.00 C 201.36 87.08 200.61 86.34 199.70 86.34 L 198.74 86.34 C 197.82 86.34 197.08 87.09 197.08 88.01 C 197.08 88.92 197.83 89.66 198.75 89.66 Z M 199.70 89.65 L 200.66 89.65 C 201.57 89.65 202.31 88.91 202.31 88.00 C 202.31 87.09 201.57 86.35 200.66 86.35 L 199.70 86.35 C 198.79 86.35 198.05 87.09 198.05 88.00 C 198.05 88.91 198.79 89.65 199.70 89.65 Z M 200.66 89.65 L 201.67 89.65 C 202.58 89.65 203.31 88.91 203.31 88.00 C 203.31 87.09 202.58 86.35 201.67 86.35 L 200.66 86.35 C 199.75 86.35 199.01 87.09 199.01 88.00 C 199.01 88.91 199.75 89.65 200.66 89.65 Z M 201.67 89.64 L 202.66 89.64 C 203.57 89.64 204.31 88.91 204.31 88.00 C 204.31 87.09 203.57 86.36 202.66 86.36 L 201.67 86.36 C 200.76 86.36 200.02 87.09 200.02 88.00 C 200.02 88.91 200.76 89.64 201.67 89.64 Z M 202.66 89.64 L 203.50 89.64 C 204.41 89.64 205.14 88.91 205.14 88.00 C 205.14 87.09 204.41 86.36 203.50 86.36 L 202.66 86.36 C 201.76 86.36 201.02 87.09 201.02 88.00 C 201.02 88.91 201.76 89.64 202.66 89.64 Z"
      fill="black"
      fill-rule="nonzero" /><path d="M 61.64 239.52 L 62.59 239.12 C 63.43 238.76 63.82 237.79 63.47 236.95 C 63.11 236.12 62.15 235.72 61.31 236.08 L 60.36 236.48 C 59.52 236.84 59.13 237.80 59.48 238.64 C 59.84 239.48 60.80 239.87 61.64 239.52 Z M 62.59 239.14 L 63.54 238.74 C 64.39 238.38 64.79 237.40 64.44 236.56 C 64.08 235.71 63.10 235.31 62.25 235.66 L 61.31 236.06 C 60.46 236.41 60.06 237.39 60.41 238.24 C 60.77 239.09 61.75 239.49 62.59 239.14 Z M 63.54 238.76 L 64.49 238.37 C 65.35 238.02 65.76 237.03 65.41 236.17 C 65.05 235.31 64.07 234.90 63.21 235.25 L 62.26 235.64 C 61.40 235.99 60.98 236.98 61.34 237.84 C 61.69 238.70 62.68 239.11 63.54 238.76 Z M 64.48 238.40 L 65.42 238.02 C 66.30 237.68 66.72 236.68 66.38 235.81 C 66.03 234.93 65.04 234.50 64.16 234.85 L 63.22 235.22 C 62.34 235.57 61.91 236.56 62.26 237.44 C 62.61 238.32 63.60 238.75 64.48 238.40 Z M 65.40 238.05 L 66.34 237.70 C 67.23 237.36 67.68 236.36 67.35 235.47 C 67.01 234.58 66.01 234.13 65.12 234.47 L 64.18 234.82 C 63.29 235.16 62.84 236.16 63.18 237.05 C 63.51 237.94 64.51 238.39 65.40 238.05 Z M 66.31 237.73 L 67.25 237.39 C 68.16 237.07 68.63 236.08 68.31 235.17 C 67.99 234.26 66.99 233.78 66.08 234.11 L 65.15 234.44 C 64.24 234.76 63.76 235.76 64.09 236.67 C 64.41 237.57 65.41 238.05 66.31 237.73 Z M 67.21 237.43 L 68.14 237.12 C 69.07 236.82 69.58 235.83 69.27 234.90 C 68.97 233.97 67.98 233.47 67.05 233.77 L 66.12 234.07 C 65.19 234.38 64.69 235.37 64.99 236.30 C 65.29 237.22 66.29 237.73 67.21 237.43 Z M 68.10 237.16 L 69.02 236.89 C 69.97 236.61 70.51 235.62 70.23 234.67 C 69.95 233.73 68.96 233.19 68.02 233.46 L 67.09 233.73 C 66.15 234.01 65.61 235.00 65.88 235.95 C 66.16 236.89 67.15 237.44 68.10 237.16 Z M 68.96 236.92 L 69.89 236.68 C 70.86 236.44 71.44 235.46 71.20 234.49 C 70.95 233.53 69.97 232.95 69.01 233.19 L 68.08 233.43 C 67.11 233.68 66.53 234.66 66.77 235.62 C 67.02 236.58 68.00 237.17 68.96 236.92 Z M 69.82 236.71 L 70.80 236.51 C 71.78 236.30 72.41 235.34 72.20 234.36 C 71.99 233.38 71.03 232.75 70.05 232.96 L 69.08 233.17 C 68.10 233.37 67.47 234.33 67.68 235.31 C 67.88 236.29 68.85 236.92 69.82 236.71 Z M 70.73 236.52 L 71.70 236.36 C 72.69 236.19 73.36 235.25 73.19 234.26 C 73.02 233.27 72.08 232.61 71.09 232.78 L 70.12 232.94 C 69.13 233.11 68.47 234.05 68.63 235.04 C 68.80 236.03 69.74 236.69 70.73 236.52 Z M 71.64 236.37 L 72.61 236.24 C 73.61 236.11 74.31 235.19 74.18 234.20 C 74.04 233.20 73.13 232.50 72.13 232.63 L 71.16 232.76 C 70.16 232.89 69.46 233.81 69.59 234.81 C 69.72 235.81 70.64 236.51 71.64 236.37 Z M 72.56 236.26 L 73.53 236.16 C 74.54 236.05 75.27 235.16 75.16 234.15 C 75.06 233.15 74.16 232.42 73.16 232.52 L 72.18 232.62 C 71.18 232.72 70.45 233.62 70.55 234.62 C 70.65 235.63 71.55 236.36 72.56 236.26 Z M 73.49 236.17 L 74.47 236.09 C 75.48 236.01 76.24 235.13 76.16 234.12 C 76.08 233.11 75.20 232.36 74.19 232.44 L 73.21 232.51 C 72.20 232.59 71.44 233.47 71.52 234.48 C 71.60 235.49 72.48 236.24 73.49 236.17 Z M 74.44 236.10 L 75.44 236.04 C 76.45 235.98 77.23 235.12 77.17 234.10 C 77.11 233.09 76.24 232.31 75.23 232.37 L 74.23 232.43 C 73.22 232.49 72.44 233.35 72.50 234.37 C 72.56 235.38 73.42 236.16 74.44 236.10 Z M 75.41 236.05 L 76.43 236.00 C 77.45 235.96 78.24 235.10 78.19 234.08 C 78.15 233.07 77.29 232.28 76.27 232.32 L 75.26 232.36 C 74.24 232.41 73.45 233.27 73.49 234.28 C 73.54 235.30 74.39 236.09 75.41 236.05 Z M 76.42 236.01 L 77.45 235.98 C 78.47 235.94 79.26 235.09 79.23 234.06 C 79.20 233.04 78.34 232.25 77.32 232.28 L 76.29 232.32 C 75.27 232.35 74.47 233.21 74.51 234.23 C 74.54 235.25 75.40 236.05 76.42 236.01 Z M 77.44 235.98 L 78.36 235.95 C 79.38 235.92 80.19 235.07 80.16 234.04 C 80.13 233.02 79.27 232.21 78.25 232.25 L 77.33 232.27 C 76.30 232.30 75.50 233.16 75.53 234.18 C 75.56 235.21 76.41 236.01 77.44 235.98 Z M 78.35 235.96 L 79.30 235.94 C 80.32 235.91 81.13 235.05 81.11 234.02 C 81.08 232.99 80.22 232.18 79.19 232.21 L 78.25 232.24 C 77.22 232.27 76.41 233.12 76.44 234.15 C 76.47 235.18 77.33 235.99 78.35 235.96 Z M 79.29 235.94 L 80.25 235.92 C 81.29 235.89 82.10 235.03 82.07 234.00 C 82.05 232.97 81.19 232.15 80.15 232.18 L 79.19 232.20 C 78.16 232.23 77.35 233.09 77.37 234.12 C 77.40 235.16 78.26 235.97 79.29 235.94 Z M 80.25 235.93 L 81.23 235.90 C 82.27 235.88 83.09 235.01 83.06 233.98 C 83.04 232.94 82.17 232.12 81.14 232.14 L 80.16 232.17 C 79.12 232.20 78.30 233.06 78.32 234.10 C 78.35 235.13 79.21 235.95 80.25 235.93 Z M 81.23 235.91 L 82.23 235.89 C 83.27 235.86 84.10 235.00 84.07 233.95 C 84.04 232.91 83.18 232.09 82.14 232.11 L 81.14 232.14 C 80.09 232.16 79.27 233.03 79.30 234.07 C 79.32 235.11 80.19 235.94 81.23 235.91 Z M 82.23 235.89 L 83.25 235.87 C 84.29 235.84 85.12 234.97 85.09 233.93 C 85.07 232.88 84.20 232.05 83.15 232.08 L 82.14 232.10 C 81.09 232.13 80.26 233.00 80.29 234.05 C 80.31 235.09 81.18 235.92 82.23 235.89 Z M 83.25 235.88 L 84.28 235.85 C 85.33 235.83 86.16 234.95 86.14 233.90 C 86.11 232.85 85.24 232.02 84.19 232.04 L 83.15 232.07 C 82.10 232.10 81.27 232.97 81.30 234.02 C 81.32 235.07 82.20 235.90 83.25 235.88 Z M 84.28 235.86 L 85.34 235.83 C 86.39 235.80 87.23 234.93 87.20 233.87 C 87.17 232.82 86.29 231.98 85.24 232.01 L 84.18 232.04 C 83.13 232.06 82.30 232.94 82.32 234.00 C 82.35 235.05 83.23 235.89 84.28 235.86 Z M 85.34 235.84 L 86.41 235.81 C 87.47 235.78 88.31 234.90 88.28 233.84 C 88.25 232.78 87.37 231.94 86.31 231.97 L 85.23 232.00 C 84.17 232.03 83.34 232.91 83.37 233.97 C 83.40 235.03 84.28 235.87 85.34 235.84 Z M 86.42 235.82 L 87.40 235.79 C 88.47 235.76 89.31 234.87 89.27 233.81 C 89.24 232.74 88.35 231.90 87.29 231.94 L 86.30 231.96 C 85.24 232.00 84.40 232.88 84.43 233.95 C 84.46 235.01 85.35 235.85 86.42 235.82 Z M 87.41 235.80 L 88.36 235.77 C 89.42 235.73 90.26 234.84 90.23 233.77 C 90.19 232.70 89.30 231.87 88.23 231.90 L 87.29 231.93 C 86.22 231.96 85.38 232.86 85.41 233.92 C 85.45 234.99 86.34 235.83 87.41 235.80 Z M 88.36 235.77 L 89.32 235.74 C 90.39 235.70 91.23 234.81 91.19 233.74 C 91.16 232.66 90.26 231.83 89.19 231.86 L 88.23 231.89 C 87.16 231.93 86.32 232.83 86.36 233.90 C 86.39 234.97 87.29 235.81 88.36 235.77 Z M 89.32 235.74 L 90.30 235.71 C 91.37 235.67 92.21 234.77 92.17 233.70 C 92.13 232.62 91.23 231.78 90.16 231.82 L 89.18 231.86 C 88.11 231.89 87.27 232.80 87.31 233.87 C 87.35 234.94 88.25 235.78 89.32 235.74 Z M 90.30 235.72 L 91.28 235.68 C 92.36 235.64 93.20 234.73 93.16 233.65 C 93.12 232.58 92.21 231.74 91.14 231.78 L 90.15 231.82 C 89.07 231.86 88.23 232.76 88.28 233.84 C 88.32 234.92 89.22 235.76 90.30 235.72 Z M 91.29 235.68 L 92.29 235.64 C 93.37 235.60 94.21 234.69 94.16 233.61 C 94.12 232.53 93.20 231.69 92.12 231.73 L 91.13 231.77 C 90.05 231.82 89.21 232.73 89.25 233.81 C 89.30 234.89 90.21 235.73 91.29 235.68 Z M 92.29 235.65 L 93.30 235.60 C 94.38 235.56 95.22 234.64 95.17 233.56 C 95.13 232.47 94.21 231.63 93.13 231.68 L 92.12 231.73 C 91.04 231.77 90.20 232.69 90.24 233.77 C 90.29 234.86 91.21 235.70 92.29 235.65 Z M 93.31 235.61 L 94.32 235.56 C 95.41 235.51 96.25 234.59 96.20 233.50 C 96.15 232.42 95.22 231.58 94.14 231.63 L 93.12 231.68 C 92.03 231.73 91.19 232.65 91.25 233.74 C 91.30 234.82 92.22 235.66 93.31 235.61 Z M 94.33 235.57 L 95.36 235.51 C 96.45 235.46 97.29 234.53 97.23 233.44 C 97.18 232.35 96.25 231.52 95.16 231.57 L 94.13 231.62 C 93.04 231.68 92.20 232.60 92.26 233.69 C 92.31 234.78 93.24 235.62 94.33 235.57 Z M 95.37 235.52 L 96.41 235.46 C 97.50 235.40 98.34 234.47 98.28 233.38 C 98.22 232.29 97.29 231.45 96.20 231.51 L 95.15 231.56 C 94.06 231.62 93.23 232.56 93.28 233.65 C 93.34 234.74 94.28 235.58 95.37 235.52 Z M 96.42 235.47 L 97.47 235.41 C 98.57 235.35 99.40 234.41 99.34 233.31 C 99.28 232.22 98.34 231.38 97.24 231.44 L 96.19 231.50 C 95.09 231.57 94.26 232.51 94.32 233.60 C 94.38 234.70 95.32 235.53 96.42 235.47 Z M 97.48 235.41 L 98.47 235.35 C 99.57 235.28 100.40 234.34 100.34 233.24 C 100.27 232.15 99.32 231.31 98.23 231.38 L 97.23 231.44 C 96.14 231.51 95.30 232.45 95.37 233.55 C 95.44 234.64 96.38 235.48 97.48 235.41 Z M 98.48 235.35 L 99.44 235.29 C 100.54 235.22 101.37 234.27 101.30 233.17 C 101.23 232.07 100.28 231.24 99.19 231.31 L 98.22 231.37 C 97.12 231.45 96.29 232.39 96.36 233.49 C 96.43 234.59 97.38 235.43 98.48 235.35 Z M 99.45 235.29 L 100.42 235.23 C 101.52 235.15 102.35 234.20 102.28 233.10 C 102.20 232.00 101.25 231.17 100.15 231.24 L 99.18 231.31 C 98.08 231.38 97.25 232.34 97.32 233.44 C 97.40 234.54 98.35 235.37 99.45 235.29 Z M 100.43 235.23 L 101.41 235.16 C 102.51 235.08 103.34 234.13 103.26 233.03 C 103.18 231.92 102.23 231.10 101.13 231.17 L 100.15 231.24 C 99.04 231.32 98.22 232.28 98.29 233.38 C 98.37 234.48 99.33 235.31 100.43 235.23 Z M 101.41 235.16 L 102.40 235.09 C 103.50 235.01 104.33 234.05 104.25 232.95 C 104.17 231.85 103.21 231.02 102.11 231.10 L 101.12 231.17 C 100.02 231.25 99.19 232.21 99.27 233.31 C 99.35 234.42 100.31 235.24 101.41 235.16 Z M 102.41 235.09 L 103.40 235.02 C 104.50 234.93 105.33 233.97 105.25 232.87 C 105.16 231.77 104.20 230.94 103.10 231.02 L 102.10 231.10 C 101.00 231.18 100.17 232.14 100.26 233.25 C 100.34 234.35 101.30 235.18 102.41 235.09 Z M 103.40 235.02 L 104.40 234.94 C 105.51 234.86 106.34 233.89 106.25 232.79 C 106.16 231.68 105.20 230.86 104.09 230.94 L 103.09 231.02 C 101.99 231.11 101.16 232.07 101.25 233.17 C 101.33 234.28 102.30 235.11 103.40 235.02 Z M 104.41 234.94 L 105.41 234.86 C 106.52 234.78 107.35 233.81 107.26 232.70 C 107.17 231.60 106.20 230.77 105.10 230.86 L 104.09 230.94 C 102.98 231.03 102.16 232.00 102.25 233.10 C 102.33 234.21 103.30 235.03 104.41 234.94 Z M 105.42 234.87 L 106.43 234.78 C 107.54 234.69 108.36 233.72 108.27 232.62 C 108.18 231.51 107.21 230.68 106.10 230.77 L 105.09 230.86 C 103.98 230.95 103.16 231.92 103.25 233.02 C 103.34 234.13 104.31 234.96 105.42 234.87 Z M 106.43 234.79 L 107.45 234.70 C 108.56 234.61 109.38 233.64 109.29 232.53 C 109.20 231.42 108.22 230.60 107.12 230.69 L 106.10 230.77 C 104.99 230.86 104.17 231.84 104.26 232.95 C 104.35 234.05 105.32 234.88 106.43 234.79 Z M 107.45 234.70 L 108.47 234.62 C 109.58 234.53 110.40 233.55 110.31 232.44 C 110.22 231.33 109.24 230.51 108.13 230.60 L 107.11 230.69 C 106.00 230.78 105.18 231.75 105.27 232.86 C 105.37 233.97 106.34 234.80 107.45 234.70 Z M 108.47 234.62 L 109.50 234.53 C 110.61 234.44 111.43 233.46 111.34 232.35 C 111.24 231.24 110.27 230.42 109.15 230.51 L 108.13 230.60 C 107.02 230.69 106.20 231.67 106.29 232.78 C 106.39 233.89 107.36 234.72 108.47 234.62 Z M 109.50 234.54 L 110.51 234.45 C 111.62 234.35 112.44 233.37 112.35 232.26 C 112.25 231.15 111.27 230.33 110.16 230.42 L 109.15 230.51 C 108.04 230.60 107.22 231.58 107.31 232.70 C 107.41 233.81 108.39 234.63 109.50 234.54 Z M 110.51 234.45 L 111.50 234.37 C 112.61 234.27 113.44 233.29 113.34 232.17 C 113.24 231.06 112.26 230.24 111.15 230.33 L 110.16 230.42 C 109.05 230.52 108.22 231.50 108.32 232.61 C 108.42 233.72 109.40 234.55 110.51 234.45 Z M 111.50 234.37 L 112.49 234.28 C 113.61 234.18 114.43 233.20 114.33 232.08 C 114.24 230.97 113.25 230.15 112.14 230.24 L 111.15 230.33 C 110.03 230.43 109.21 231.41 109.31 232.53 C 109.40 233.64 110.39 234.47 111.50 234.37 Z M 112.49 234.28 L 113.49 234.19 C 114.60 234.10 115.43 233.11 115.33 232.00 C 115.23 230.88 114.25 230.06 113.13 230.15 L 112.14 230.24 C 111.02 230.34 110.20 231.33 110.30 232.44 C 110.39 233.56 111.38 234.38 112.49 234.28 Z M 113.49 234.20 L 114.48 234.11 C 115.60 234.01 116.43 233.02 116.33 231.90 C 116.23 230.79 115.24 229.96 114.12 230.06 L 113.13 230.15 C 112.01 230.25 111.19 231.24 111.29 232.35 C 111.39 233.47 112.37 234.30 113.49 234.20 Z M 114.49 234.11 L 115.48 234.02 C 116.60 233.92 117.43 232.93 117.33 231.81 C 117.23 230.70 116.24 229.87 115.12 229.97 L 114.12 230.06 C 113.00 230.16 112.18 231.15 112.28 232.27 C 112.38 233.39 113.37 234.21 114.49 234.11 Z M 115.48 234.02 L 116.48 233.93 C 117.60 233.83 118.43 232.84 118.33 231.72 C 118.22 230.60 117.23 229.78 116.12 229.88 L 115.12 229.97 C 114.00 230.07 113.17 231.06 113.27 232.18 C 113.38 233.30 114.36 234.12 115.48 234.02 Z M 116.48 233.94 L 117.48 233.84 C 118.60 233.74 119.43 232.75 119.33 231.63 C 119.22 230.51 118.23 229.68 117.11 229.79 L 116.11 229.88 C 114.99 229.98 114.17 230.97 114.27 232.09 C 114.37 233.21 115.36 234.04 116.48 233.94 Z M 117.48 233.85 L 118.48 233.75 C 119.60 233.65 120.43 232.66 120.33 231.54 C 120.22 230.41 119.23 229.59 118.11 229.69 L 117.11 229.78 C 115.99 229.89 115.16 230.88 115.27 232.00 C 115.37 233.12 116.36 233.95 117.48 233.85 Z M 118.48 233.76 L 119.48 233.66 C 120.61 233.56 121.43 232.57 121.33 231.44 C 121.23 230.32 120.23 229.49 119.11 229.60 L 118.11 229.69 C 116.98 229.79 116.16 230.79 116.26 231.91 C 116.37 233.03 117.36 233.86 118.48 233.76 Z M 119.48 233.67 L 120.48 233.57 C 121.61 233.47 122.43 232.47 122.33 231.35 C 122.23 230.22 121.23 229.40 120.10 229.50 L 119.11 229.59 C 117.98 229.70 117.15 230.70 117.26 231.82 C 117.36 232.94 118.36 233.77 119.48 233.67 Z M 120.48 233.58 L 121.48 233.48 C 122.61 233.38 123.44 232.38 123.33 231.25 C 123.23 230.13 122.23 229.30 121.10 229.41 L 120.10 229.50 C 118.98 229.60 118.15 230.60 118.26 231.73 C 118.36 232.85 119.36 233.68 120.48 233.58 Z M 121.48 233.49 L 122.48 233.39 C 123.61 233.29 124.44 232.29 124.33 231.16 C 124.22 230.03 123.23 229.20 122.10 229.31 L 121.10 229.40 C 119.97 229.51 119.15 230.51 119.25 231.64 C 119.36 232.76 120.36 233.59 121.48 233.49 Z M 122.48 233.39 L 123.48 233.30 C 124.61 233.19 125.44 232.19 125.33 231.06 C 125.23 229.94 124.23 229.11 123.10 229.21 L 122.10 229.31 C 120.97 229.41 120.14 230.42 120.25 231.54 C 120.35 232.67 121.35 233.50 122.48 233.39 Z M 123.49 233.30 L 124.49 233.21 C 125.62 233.10 126.45 232.10 126.34 230.97 C 126.23 229.84 125.23 229.01 124.10 229.12 L 123.10 229.21 C 121.97 229.32 121.14 230.32 121.25 231.45 C 121.35 232.58 122.36 233.41 123.49 233.30 Z M 124.49 233.21 L 125.49 233.12 C 126.62 233.01 127.45 232.00 127.34 230.87 C 127.24 229.74 126.23 228.91 125.10 229.02 L 124.10 229.11 C 122.97 229.22 122.14 230.23 122.25 231.36 C 122.35 232.49 123.36 233.32 124.49 233.21 Z M 125.49 233.12 L 126.49 233.02 C 127.62 232.91 128.45 231.91 128.35 230.78 C 128.24 229.64 127.23 228.81 126.10 228.92 L 125.10 229.02 C 123.97 229.12 123.14 230.13 123.25 231.26 C 123.35 232.39 124.36 233.23 125.49 233.12 Z M 126.49 233.02 L 127.49 232.93 C 128.63 232.82 129.46 231.81 129.35 230.68 C 129.24 229.55 128.23 228.72 127.10 228.82 L 126.10 228.92 C 124.97 229.03 124.14 230.03 124.24 231.17 C 124.35 232.30 125.36 233.13 126.49 233.02 Z M 127.49 232.93 L 128.49 232.84 C 129.62 232.73 130.46 231.72 130.35 230.58 C 130.24 229.45 129.23 228.62 128.10 228.73 L 127.10 228.82 C 125.96 228.93 125.13 229.94 125.24 231.07 C 125.35 232.21 126.36 233.04 127.49 232.93 Z M 128.49 232.84 L 129.49 232.74 C 130.62 232.64 131.46 231.63 131.35 230.49 C 131.24 229.35 130.23 228.52 129.09 228.63 L 128.10 228.72 C 126.96 228.83 126.13 229.84 126.23 230.98 C 126.34 232.11 127.35 232.95 128.49 232.84 Z M 129.49 232.75 L 130.48 232.65 C 131.62 232.54 132.45 231.53 132.34 230.39 C 132.24 229.26 131.22 228.42 130.09 228.53 L 129.09 228.63 C 127.95 228.73 127.12 229.74 127.23 230.88 C 127.34 232.02 128.35 232.86 129.49 232.75 Z M 130.48 232.65 L 131.47 232.56 C 132.61 232.45 133.45 231.44 133.34 230.30 C 133.23 229.16 132.22 228.32 131.08 228.43 L 130.09 228.53 C 128.95 228.64 128.11 229.65 128.22 230.79 C 128.33 231.93 129.34 232.76 130.48 232.65 Z M 131.47 232.56 L 132.46 232.47 C 133.61 232.36 134.44 231.35 134.33 230.21 C 134.23 229.06 133.21 228.23 132.07 228.34 L 131.08 228.43 C 129.94 228.54 129.10 229.55 129.21 230.69 C 129.32 231.83 130.33 232.67 131.47 232.56 Z M 132.46 232.47 L 133.45 232.38 C 134.60 232.27 135.43 231.25 135.33 230.11 C 135.22 228.97 134.20 228.13 133.06 228.24 L 132.07 228.33 C 130.93 228.44 130.09 229.46 130.20 230.60 C 130.31 231.74 131.32 232.58 132.46 232.47 Z M 133.45 232.38 L 134.44 232.29 C 135.58 232.18 136.42 231.16 136.32 230.02 C 136.21 228.88 135.19 228.04 134.05 228.14 L 133.06 228.24 C 131.92 228.35 131.08 229.36 131.19 230.50 C 131.29 231.65 132.31 232.49 133.45 232.38 Z M 134.44 232.29 L 135.43 232.20 C 136.57 232.09 137.41 231.07 137.31 229.93 C 137.20 228.78 136.18 227.94 135.04 228.05 L 134.05 228.14 C 132.91 228.25 132.06 229.26 132.17 230.41 C 132.28 231.56 133.29 232.40 134.44 232.29 Z M 135.43 232.20 L 136.42 232.10 C 137.57 232.00 138.41 230.98 138.31 229.84 C 138.20 228.69 137.18 227.85 136.04 227.95 L 135.04 228.05 C 133.89 228.15 133.05 229.17 133.16 230.32 C 133.26 231.46 134.28 232.30 135.43 232.20 Z M 136.42 232.11 L 137.42 232.01 C 138.57 231.91 139.41 230.89 139.30 229.74 C 139.20 228.60 138.18 227.75 137.03 227.86 L 136.04 227.95 C 134.89 228.06 134.05 229.08 134.15 230.22 C 134.26 231.37 135.28 232.21 136.42 232.11 Z M 137.42 232.01 L 138.41 231.92 C 139.56 231.82 140.40 230.80 140.30 229.65 C 140.19 228.50 139.18 227.66 138.03 227.77 L 137.03 227.86 C 135.89 227.97 135.04 228.98 135.15 230.13 C 135.25 231.28 136.27 232.12 137.42 232.01 Z M 138.41 231.92 L 139.41 231.83 C 140.55 231.73 141.40 230.71 141.29 229.56 C 141.19 228.41 140.17 227.57 139.02 227.67 L 138.03 227.77 C 136.88 227.87 136.04 228.89 136.14 230.04 C 136.25 231.18 137.26 232.03 138.41 231.92 Z M 139.41 231.83 L 140.40 231.74 C 141.55 231.64 142.39 230.62 142.29 229.47 C 142.18 228.32 141.17 227.48 140.02 227.58 L 139.02 227.67 C 137.88 227.78 137.03 228.80 137.14 229.94 C 137.24 231.09 138.26 231.94 139.41 231.83 Z M 140.40 231.74 L 141.39 231.65 C 142.54 231.55 143.39 230.53 143.28 229.38 C 143.18 228.23 142.16 227.38 141.01 227.49 L 140.02 227.58 C 138.87 227.69 138.02 228.70 138.13 229.85 C 138.23 231.00 139.25 231.85 140.40 231.74 Z M 141.39 231.65 L 142.39 231.56 C 143.54 231.46 144.38 230.44 144.28 229.29 C 144.17 228.14 143.16 227.29 142.01 227.40 L 141.01 227.49 C 139.86 227.59 139.02 228.61 139.12 229.76 C 139.23 230.91 140.24 231.76 141.39 231.65 Z M 142.39 231.56 L 143.38 231.47 C 144.53 231.37 145.38 230.35 145.27 229.20 C 145.17 228.05 144.15 227.20 143.00 227.31 L 142.01 227.40 C 140.86 227.50 140.01 228.52 140.11 229.67 C 140.22 230.82 141.24 231.67 142.39 231.56 Z M 143.38 231.47 L 144.38 231.38 C 145.53 231.28 146.37 230.26 146.27 229.11 C 146.16 227.96 145.15 227.11 144.00 227.21 L 143.00 227.31 C 141.85 227.41 141.00 228.43 141.11 229.58 C 141.21 230.73 142.23 231.58 143.38 231.47 Z M 144.38 231.38 L 145.37 231.29 C 146.52 231.19 147.37 230.17 147.27 229.02 C 147.16 227.87 146.14 227.02 144.99 227.12 L 144.00 227.21 C 142.84 227.32 142.00 228.34 142.10 229.49 C 142.21 230.64 143.22 231.49 144.38 231.38 Z M 145.37 231.29 L 146.37 231.20 C 147.52 231.10 148.37 230.08 148.27 228.93 C 148.16 227.77 147.14 226.93 145.99 227.03 L 144.99 227.12 C 143.84 227.23 142.99 228.25 143.10 229.40 C 143.20 230.55 144.22 231.40 145.37 231.29 Z M 146.37 231.20 L 147.37 231.11 C 148.52 231.01 149.37 229.99 149.27 228.84 C 149.16 227.68 148.14 226.83 146.99 226.94 L 145.99 227.03 C 144.84 227.14 143.99 228.15 144.09 229.31 C 144.20 230.46 145.22 231.31 146.37 231.20 Z M 147.37 231.11 L 148.36 231.02 C 149.51 230.92 150.36 229.90 150.26 228.74 C 150.15 227.59 149.13 226.74 147.98 226.85 L 146.99 226.94 C 145.84 227.04 144.99 228.06 145.09 229.22 C 145.20 230.37 146.22 231.22 147.37 231.11 Z M 148.36 231.02 L 149.35 230.93 C 150.50 230.83 151.35 229.81 151.24 228.65 C 151.14 227.50 150.12 226.65 148.97 226.76 L 147.98 226.85 C 146.83 226.95 145.98 227.97 146.08 229.13 C 146.19 230.28 147.21 231.13 148.36 231.02 Z M 149.35 230.93 L 150.34 230.84 C 151.49 230.74 152.34 229.72 152.23 228.56 C 152.13 227.41 151.11 226.56 149.95 226.67 L 148.97 226.76 C 147.81 226.86 146.96 227.88 147.07 229.04 C 147.17 230.19 148.19 231.04 149.35 230.93 Z M 150.34 230.84 L 151.33 230.75 C 152.48 230.65 153.33 229.62 153.22 228.47 C 153.12 227.32 152.10 226.47 150.94 226.57 L 149.95 226.67 C 148.80 226.77 147.95 227.79 148.06 228.95 C 148.16 230.10 149.18 230.95 150.34 230.84 Z M 151.33 230.75 L 152.32 230.66 C 153.47 230.55 154.32 229.53 154.22 228.38 C 154.11 227.22 153.09 226.38 151.93 226.48 L 150.94 226.57 C 149.79 226.68 148.94 227.70 149.05 228.86 C 149.15 230.01 150.17 230.86 151.33 230.75 Z M 152.32 230.66 L 153.32 230.57 C 154.47 230.46 155.32 229.44 155.21 228.29 C 155.10 227.13 154.08 226.28 152.93 226.39 L 151.93 226.48 C 150.78 226.59 149.93 227.61 150.04 228.77 C 150.14 229.92 151.17 230.77 152.32 230.66 Z M 153.32 230.57 L 154.31 230.48 C 155.47 230.37 156.32 229.35 156.21 228.19 C 156.10 227.04 155.08 226.19 153.92 226.30 L 152.93 226.39 C 151.77 226.50 150.92 227.52 151.03 228.67 C 151.14 229.83 152.16 230.68 153.32 230.57 Z M 154.31 230.48 L 155.31 230.38 C 156.47 230.28 157.31 229.25 157.21 228.10 C 157.10 226.94 156.07 226.09 154.92 226.20 L 153.92 226.30 C 152.77 226.40 151.92 227.43 152.03 228.58 C 152.14 229.74 153.16 230.59 154.31 230.48 Z M 155.31 230.38 L 156.31 230.29 C 157.47 230.18 158.32 229.16 158.21 228.00 C 158.10 226.85 157.07 226.00 155.92 226.11 L 154.92 226.20 C 153.76 226.31 152.91 227.34 153.02 228.49 C 153.13 229.65 154.16 230.49 155.31 230.38 Z M 156.31 230.29 L 157.31 230.20 C 158.47 230.09 159.32 229.06 159.21 227.90 C 159.10 226.75 158.07 225.90 156.92 226.01 L 155.92 226.11 C 154.76 226.22 153.91 227.24 154.02 228.40 C 154.13 229.55 155.16 230.40 156.31 230.29 Z M 157.32 230.20 L 158.32 230.10 C 159.47 229.99 160.32 228.96 160.21 227.81 C 160.10 226.65 159.07 225.80 157.92 225.92 L 156.91 226.01 C 155.76 226.12 154.91 227.15 155.02 228.30 C 155.13 229.46 156.16 230.31 157.32 230.20 Z M 158.32 230.10 L 159.32 230.00 C 160.48 229.89 161.32 228.86 161.21 227.71 C 161.10 226.55 160.07 225.71 158.92 225.82 L 157.91 225.91 C 156.76 226.03 155.91 227.05 156.02 228.21 C 156.14 229.37 157.16 230.21 158.32 230.10 Z M 159.32 230.00 L 160.33 229.91 C 161.48 229.79 162.33 228.76 162.22 227.61 C 162.10 226.45 161.08 225.61 159.92 225.72 L 158.92 225.82 C 157.76 225.93 156.91 226.96 157.03 228.11 C 157.14 229.27 158.17 230.12 159.32 230.00 Z M 160.33 229.91 L 161.35 229.81 C 162.50 229.69 163.35 228.66 163.23 227.51 C 163.12 226.35 162.09 225.51 160.93 225.62 L 159.92 225.72 C 158.76 225.83 157.92 226.86 158.03 228.02 C 158.14 229.17 159.17 230.02 160.33 229.91 Z M 161.35 229.81 L 162.37 229.70 C 163.52 229.59 164.37 228.56 164.25 227.40 C 164.14 226.25 163.10 225.40 161.95 225.52 L 160.93 225.62 C 159.78 225.73 158.93 226.76 159.05 227.92 C 159.16 229.08 160.19 229.92 161.35 229.81 Z M 162.37 229.70 L 163.38 229.60 C 164.54 229.49 165.38 228.45 165.27 227.30 C 165.15 226.14 164.12 225.30 162.96 225.41 L 161.95 225.52 C 160.79 225.63 159.95 226.67 160.06 227.82 C 160.18 228.98 161.21 229.82 162.37 229.70 Z M 163.39 229.60 L 164.40 229.50 C 165.56 229.38 166.40 228.35 166.28 227.19 C 166.16 226.03 165.13 225.19 163.97 225.31 L 162.96 225.41 C 161.80 225.53 160.96 226.57 161.08 227.72 C 161.20 228.88 162.23 229.72 163.39 229.60 Z M 164.40 229.50 L 165.41 229.39 C 166.57 229.27 167.41 228.24 167.29 227.08 C 167.17 225.93 166.13 225.09 164.98 225.21 L 163.97 225.31 C 162.81 225.43 161.97 226.47 162.09 227.62 C 162.21 228.78 163.25 229.62 164.40 229.50 Z M 165.42 229.39 L 166.42 229.29 C 167.58 229.16 168.42 228.13 168.30 226.97 C 168.17 225.81 167.14 224.98 165.98 225.10 L 164.97 225.21 C 163.82 225.33 162.98 226.37 163.10 227.52 C 163.22 228.68 164.26 229.52 165.42 229.39 Z M 166.43 229.29 L 167.43 229.18 C 168.58 229.05 169.42 228.02 169.30 226.86 C 169.17 225.70 168.13 224.87 166.98 224.99 L 165.97 225.10 C 164.82 225.22 163.98 226.26 164.11 227.42 C 164.23 228.58 165.27 229.41 166.43 229.29 Z M 167.43 229.18 L 168.43 229.07 C 169.58 228.94 170.42 227.90 170.29 226.74 C 170.16 225.59 169.12 224.75 167.96 224.88 L 166.97 224.99 C 165.81 225.12 164.98 226.16 165.11 227.32 C 165.24 228.47 166.28 229.31 167.43 229.18 Z M 168.43 229.07 L 169.42 228.96 C 170.57 228.83 171.41 227.78 171.28 226.63 C 171.14 225.47 170.10 224.64 168.94 224.77 L 167.96 224.88 C 166.80 225.01 165.97 226.06 166.10 227.21 C 166.23 228.37 167.28 229.20 168.43 229.07 Z M 169.42 228.96 L 170.40 228.84 C 171.56 228.71 172.39 227.66 172.25 226.51 C 172.12 225.35 171.07 224.52 169.92 224.66 L 168.94 224.77 C 167.78 224.90 166.95 225.95 167.09 227.11 C 167.22 228.26 168.27 229.09 169.42 228.96 Z M 170.41 228.84 L 171.38 228.73 C 172.53 228.59 173.36 227.54 173.22 226.39 C 173.08 225.23 172.03 224.40 170.88 224.54 L 169.91 224.66 C 168.75 224.79 167.93 225.84 168.07 227.00 C 168.20 228.16 169.25 228.98 170.41 228.84 Z M 171.38 228.73 L 172.34 228.61 C 173.50 228.47 174.32 227.42 174.18 226.26 C 174.03 225.11 172.98 224.28 171.83 224.43 L 170.87 224.54 C 169.71 224.68 168.89 225.74 169.03 226.89 C 169.18 228.05 170.23 228.87 171.38 228.73 Z M 172.35 228.61 L 173.33 228.49 C 174.49 228.34 175.31 227.28 175.16 226.13 C 175.02 224.97 173.96 224.16 172.80 224.30 L 171.82 224.43 C 170.66 224.57 169.84 225.63 169.99 226.78 C 170.14 227.94 171.19 228.76 172.35 228.61 Z M 173.34 228.48 L 174.38 228.35 C 175.54 228.20 176.35 227.14 176.20 225.98 C 176.05 224.83 174.99 224.02 173.83 224.17 L 172.80 224.30 C 171.64 224.45 170.83 225.51 170.98 226.67 C 171.13 227.82 172.19 228.63 173.34 228.48 Z M 174.39 228.35 L 175.41 228.21 C 176.57 228.05 177.38 226.99 177.22 225.84 C 177.07 224.69 176.01 223.88 174.85 224.03 L 173.83 224.17 C 172.67 224.32 171.86 225.38 172.02 226.54 C 172.17 227.69 173.23 228.50 174.39 228.35 Z M 175.42 228.21 L 176.43 228.07 C 177.58 227.91 178.39 226.85 178.23 225.69 C 178.07 224.54 177.01 223.73 175.86 223.89 L 174.85 224.03 C 173.69 224.19 172.89 225.25 173.04 226.41 C 173.20 227.56 174.27 228.37 175.42 228.21 Z M 176.44 228.07 L 177.44 227.93 C 178.59 227.77 179.39 226.70 179.23 225.55 C 179.07 224.40 178.01 223.59 176.85 223.75 L 175.85 223.89 C 174.70 224.06 173.90 225.12 174.06 226.27 C 174.22 227.43 175.28 228.23 176.44 228.07 Z M 177.44 227.93 L 178.43 227.79 C 179.58 227.62 180.39 226.56 180.22 225.40 C 180.06 224.25 178.99 223.45 177.84 223.61 L 176.85 223.75 C 175.70 223.92 174.89 224.98 175.06 226.14 C 175.22 227.29 176.29 228.09 177.44 227.93 Z M 178.43 227.79 L 179.42 227.65 C 180.57 227.48 181.37 226.41 181.20 225.26 C 181.04 224.11 179.97 223.31 178.82 223.47 L 177.84 223.61 C 176.68 223.78 175.88 224.85 176.05 226.00 C 176.21 227.15 177.28 227.95 178.43 227.79 Z M 179.42 227.65 L 180.39 227.50 C 181.54 227.34 182.34 226.27 182.18 225.12 C 182.01 223.97 180.94 223.17 179.79 223.33 L 178.82 223.47 C 177.66 223.64 176.86 224.71 177.03 225.86 C 177.20 227.01 178.27 227.81 179.42 227.65 Z M 180.39 227.50 L 181.36 227.37 C 182.51 227.20 183.31 226.13 183.14 224.98 C 182.98 223.83 181.91 223.03 180.76 223.19 L 179.79 223.33 C 178.64 223.50 177.84 224.57 178.01 225.72 C 178.17 226.87 179.24 227.67 180.39 227.50 Z M 181.36 227.36 L 182.32 227.23 C 183.47 227.06 184.27 225.99 184.11 224.84 C 183.94 223.69 182.87 222.89 181.72 223.06 L 180.76 223.19 C 179.61 223.36 178.81 224.43 178.97 225.58 C 179.14 226.73 180.21 227.53 181.36 227.36 Z M 182.32 227.23 L 183.28 227.09 C 184.43 226.93 185.23 225.86 185.06 224.71 C 184.90 223.56 183.83 222.76 182.68 222.92 L 181.72 223.06 C 180.57 223.22 179.77 224.29 179.94 225.44 C 180.10 226.59 181.17 227.39 182.32 227.23 Z M 183.27 227.09 L 184.23 226.96 C 185.39 226.79 186.19 225.73 186.03 224.58 C 185.86 223.43 184.80 222.62 183.65 222.78 L 182.69 222.92 C 181.53 223.08 180.73 224.15 180.89 225.30 C 181.06 226.45 182.12 227.25 183.27 227.09 Z M 184.23 226.96 L 185.22 226.82 C 186.37 226.66 187.18 225.60 187.02 224.45 C 186.86 223.29 185.80 222.49 184.64 222.65 L 183.65 222.78 C 182.50 222.94 181.70 224.01 181.85 225.16 C 182.01 226.31 183.08 227.11 184.23 226.96 Z M 185.21 226.82 L 186.20 226.69 C 187.36 226.53 188.16 225.47 188.01 224.32 C 187.85 223.16 186.79 222.36 185.64 222.51 L 184.65 222.65 C 183.50 222.80 182.69 223.86 182.85 225.02 C 183.00 226.17 184.06 226.98 185.21 226.82 Z M 186.20 226.69 L 187.19 226.55 C 188.34 226.40 189.15 225.34 189.00 224.19 C 188.84 223.04 187.78 222.23 186.63 222.38 L 185.64 222.51 C 184.49 222.67 183.68 223.73 183.84 224.88 C 183.99 226.03 185.05 226.84 186.20 226.69 Z M 187.18 226.55 L 188.17 226.42 C 189.33 226.27 190.14 225.22 189.99 224.06 C 189.83 222.91 188.78 222.10 187.63 222.25 L 186.64 222.38 C 185.49 222.53 184.67 223.59 184.83 224.74 C 184.98 225.89 186.03 226.70 187.18 226.55 Z M 188.17 226.42 L 189.16 226.30 C 190.31 226.15 191.12 225.09 190.97 223.94 C 190.83 222.79 189.77 221.98 188.62 222.12 L 187.63 222.25 C 186.48 222.40 185.67 223.46 185.81 224.61 C 185.96 225.76 187.02 226.57 188.17 226.42 Z M 189.16 226.29 L 190.15 226.17 C 191.30 226.02 192.11 224.97 191.96 223.82 C 191.82 222.66 190.76 221.85 189.61 222.00 L 188.62 222.12 C 187.47 222.27 186.66 223.32 186.80 224.48 C 186.95 225.63 188.00 226.44 189.16 226.29 Z M 190.14 226.17 L 191.13 226.04 C 192.29 225.90 193.10 224.85 192.96 223.69 C 192.81 222.54 191.76 221.73 190.61 221.87 L 189.62 222.00 C 188.46 222.14 187.65 223.20 187.79 224.35 C 187.94 225.50 188.99 226.31 190.14 226.17 Z M 191.13 226.04 L 192.12 225.92 C 193.28 225.77 194.09 224.72 193.95 223.57 C 193.80 222.42 192.75 221.60 191.60 221.75 L 190.61 221.87 C 189.46 222.02 188.64 223.07 188.79 224.22 C 188.93 225.37 189.98 226.19 191.13 226.04 Z M 192.12 225.92 L 193.12 225.79 C 194.27 225.65 195.08 224.60 194.94 223.45 C 194.80 222.30 193.75 221.48 192.60 221.63 L 191.60 221.75 C 190.45 221.89 189.64 222.94 189.78 224.09 C 189.92 225.24 190.97 226.06 192.12 225.92 Z M 193.11 225.79 L 194.11 225.67 C 195.26 225.53 196.08 224.48 195.94 223.33 C 195.79 222.18 194.75 221.36 193.60 221.50 L 192.60 221.63 C 191.45 221.77 190.63 222.82 190.77 223.97 C 190.92 225.12 191.96 225.94 193.11 225.79 Z M 194.11 225.67 L 195.10 225.55 C 196.25 225.41 197.07 224.36 196.93 223.21 C 196.79 222.06 195.74 221.24 194.59 221.38 L 193.60 221.50 C 192.45 221.64 191.63 222.69 191.77 223.84 C 191.91 224.99 192.96 225.81 194.11 225.67 Z M 195.10 225.55 L 196.09 225.43 C 197.24 225.28 198.06 224.24 197.92 223.09 C 197.77 221.94 196.73 221.12 195.58 221.26 L 194.59 221.38 C 193.44 221.52 192.62 222.57 192.76 223.72 C 192.91 224.87 193.95 225.69 195.10 225.55 Z M 196.09 225.43 L 197.07 225.31 C 198.22 225.16 199.04 224.12 198.90 222.97 C 198.76 221.82 197.72 221.00 196.56 221.14 L 195.58 221.26 C 194.43 221.40 193.61 222.45 193.75 223.60 C 193.89 224.75 194.94 225.57 196.09 225.43 Z M 197.07 225.31 L 198.06 225.18 C 199.21 225.04 200.03 224.00 199.89 222.85 C 199.75 221.70 198.71 220.88 197.56 221.02 L 196.57 221.14 C 195.42 221.28 194.60 222.33 194.74 223.48 C 194.88 224.63 195.92 225.45 197.07 225.31 Z M 198.06 225.18 L 199.05 225.06 C 200.20 224.93 201.02 223.88 200.88 222.73 C 200.74 221.58 199.70 220.76 198.55 220.90 L 197.56 221.02 C 196.41 221.16 195.59 222.20 195.73 223.35 C 195.87 224.50 196.91 225.32 198.06 225.18 Z M 199.05 225.06 L 200.04 224.94 C 201.19 224.81 202.01 223.76 201.88 222.61 C 201.74 221.46 200.69 220.64 199.54 220.78 L 198.55 220.90 C 197.40 221.04 196.58 222.08 196.72 223.23 C 196.86 224.38 197.90 225.20 199.05 225.06 Z M 200.04 224.94 L 201.04 224.83 C 202.19 224.69 203.01 223.64 202.87 222.49 C 202.73 221.34 201.69 220.52 200.54 220.66 L 199.54 220.78 C 198.39 220.92 197.57 221.96 197.71 223.11 C 197.85 224.26 198.89 225.08 200.04 224.94 Z M 201.04 224.83 L 202.03 224.71 C 203.18 224.57 204.00 223.53 203.87 222.38 C 203.73 221.23 202.69 220.41 201.54 220.54 L 200.54 220.66 C 199.39 220.80 198.57 221.84 198.71 222.99 C 198.84 224.14 199.89 224.96 201.04 224.83 Z M 202.03 224.71 L 203.03 224.59 C 204.18 224.46 205.00 223.41 204.86 222.26 C 204.73 221.11 203.69 220.29 202.54 220.43 L 201.54 220.54 C 200.39 220.68 199.57 221.72 199.70 222.87 C 199.84 224.02 200.88 224.84 202.03 224.71 Z M 203.02 224.59 L 204.02 224.47 C 205.17 224.34 205.99 223.30 205.86 222.15 C 205.73 221.00 204.69 220.18 203.54 220.31 L 202.54 220.43 C 201.39 220.56 200.56 221.60 200.70 222.75 C 200.83 223.90 201.87 224.72 203.02 224.59 Z M 204.02 224.47 L 205.02 224.36 C 206.17 224.23 206.99 223.19 206.86 222.04 C 206.73 220.89 205.69 220.06 204.54 220.19 L 203.54 220.31 C 202.39 220.44 201.56 221.48 201.70 222.63 C 201.83 223.78 202.87 224.61 204.02 224.47 Z M 205.01 224.36 L 206.01 224.25 C 207.16 224.11 207.99 223.08 207.86 221.93 C 207.72 220.78 206.69 219.95 205.54 220.08 L 204.54 220.19 C 203.39 220.33 202.56 221.36 202.69 222.51 C 202.82 223.66 203.86 224.49 205.01 224.36 Z M 206.01 224.25 L 207.00 224.13 C 208.15 224.00 208.98 222.97 208.85 221.82 C 208.72 220.67 207.68 219.84 206.53 219.97 L 205.54 220.08 C 204.39 220.21 203.56 221.25 203.69 222.40 C 203.82 223.55 204.86 224.38 206.01 224.25 Z M 207.00 224.13 L 207.99 224.02 C 209.14 223.89 209.97 222.86 209.84 221.71 C 209.72 220.56 208.68 219.73 207.53 219.86 L 206.54 219.97 C 205.39 220.10 204.56 221.13 204.69 222.28 C 204.81 223.43 205.85 224.26 207.00 224.13 Z M 207.99 224.02 L 208.99 223.91 C 210.13 223.79 210.96 222.75 210.84 221.60 C 210.71 220.45 209.68 219.62 208.53 219.75 L 207.53 219.86 C 206.38 219.99 205.55 221.02 205.68 222.17 C 205.81 223.32 206.84 224.15 207.99 224.02 Z M 208.98 223.91 L 209.98 223.80 C 211.13 223.68 211.96 222.64 211.83 221.49 C 211.71 220.34 210.67 219.51 209.52 219.64 L 208.53 219.75 C 207.38 219.88 206.55 220.91 206.67 222.06 C 206.80 223.21 207.83 224.04 208.98 223.91 Z M 209.98 223.80 L 210.97 223.70 C 212.12 223.57 212.95 222.54 212.83 221.39 C 212.70 220.24 211.67 219.41 210.52 219.53 L 209.52 219.64 C 208.37 219.77 207.54 220.80 207.67 221.95 C 207.79 223.10 208.83 223.93 209.98 223.80 Z M 210.97 223.70 L 211.96 223.59 C 213.11 223.46 213.94 222.43 213.82 221.28 C 213.70 220.13 212.66 219.30 211.51 219.43 L 210.52 219.53 C 209.37 219.66 208.54 220.69 208.66 221.84 C 208.79 222.99 209.82 223.82 210.97 223.70 Z M 211.96 223.59 L 212.96 223.48 C 214.10 223.36 214.94 222.33 214.81 221.18 C 214.69 220.03 213.66 219.20 212.51 219.32 L 211.51 219.43 C 210.37 219.55 209.53 220.58 209.66 221.73 C 209.78 222.88 210.81 223.71 211.96 223.59 Z M 212.95 223.48 L 213.95 223.38 C 215.10 223.25 215.93 222.22 215.81 221.07 C 215.68 219.92 214.65 219.09 213.50 219.21 L 212.51 219.32 C 211.36 219.44 210.53 220.47 210.65 221.62 C 210.77 222.77 211.81 223.60 212.95 223.48 Z M 213.95 223.37 L 214.94 223.27 C 216.09 223.15 216.92 222.12 216.80 220.97 C 216.68 219.82 215.65 218.99 214.50 219.11 L 213.50 219.21 C 212.36 219.34 211.52 220.37 211.65 221.52 C 211.77 222.66 212.80 223.50 213.95 223.37 Z M 214.94 223.27 L 215.94 223.16 C 217.08 223.04 217.92 222.01 217.79 220.86 C 217.67 219.71 216.64 218.88 215.49 219.00 L 214.50 219.11 C 213.35 219.23 212.52 220.26 212.64 221.41 C 212.76 222.56 213.79 223.39 214.94 223.27 Z M 215.94 223.16 L 216.72 223.08 C 217.87 222.96 218.70 221.93 218.58 220.78 C 218.46 219.63 217.43 218.80 216.28 218.92 L 215.49 219.00 C 214.35 219.13 213.51 220.16 213.63 221.30 C 213.76 222.45 214.79 223.28 215.94 223.16 Z"
      fill="black"
      fill-rule="nonzero" /></svg>